<mxfile host="app.diagrams.net" agent="Mozilla/5.0 (Windows NT 10.0; Win64; x64) AppleWebKit/537.36 (KHTML, like Gecko) Chrome/137.0.0.0 Safari/537.36" version="27.1.6">
  <diagram name="Page-1" id="crMbSOYABWYHzBiARNxQ">
    <mxGraphModel dx="1226" dy="642" grid="1" gridSize="10" guides="1" tooltips="1" connect="1" arrows="1" fold="1" page="1" pageScale="1" pageWidth="827" pageHeight="1169" math="0" shadow="0">
      <root>
        <mxCell id="0" />
        <mxCell id="1" parent="0" />
        <mxCell id="pEIZtiJ_ITwtVXxSGJHu-5" value="" style="edgeStyle=orthogonalEdgeStyle;rounded=0;orthogonalLoop=1;jettySize=auto;html=1;" edge="1" parent="1" source="pEIZtiJ_ITwtVXxSGJHu-1" target="pEIZtiJ_ITwtVXxSGJHu-4">
          <mxGeometry relative="1" as="geometry" />
        </mxCell>
        <mxCell id="pEIZtiJ_ITwtVXxSGJHu-7" value="" style="edgeStyle=orthogonalEdgeStyle;rounded=0;orthogonalLoop=1;jettySize=auto;html=1;" edge="1" parent="1" source="pEIZtiJ_ITwtVXxSGJHu-1" target="pEIZtiJ_ITwtVXxSGJHu-6">
          <mxGeometry relative="1" as="geometry" />
        </mxCell>
        <mxCell id="pEIZtiJ_ITwtVXxSGJHu-1" value="&lt;div style=&quot;text-align: center;&quot;&gt;&lt;span style=&quot;background-color: transparent; color: light-dark(rgb(0, 0, 0), rgb(255, 255, 255));&quot;&gt;Data Transfer&lt;/span&gt;&lt;/div&gt;&lt;div&gt;&lt;ul&gt;&lt;li&gt;Packet data transfer&lt;/li&gt;&lt;li&gt;Each part of data takes different route to destination&lt;/li&gt;&lt;li&gt;Re-routes if one hop fails&lt;/li&gt;&lt;/ul&gt;&lt;/div&gt;" style="rounded=1;whiteSpace=wrap;html=1;align=left;" vertex="1" parent="1">
          <mxGeometry x="310" y="120" width="180" height="130" as="geometry" />
        </mxCell>
        <mxCell id="pEIZtiJ_ITwtVXxSGJHu-4" value="Forwarding&lt;div&gt;&lt;ul&gt;&lt;li style=&quot;text-align: left;&quot;&gt;forwards data to next hop&lt;/li&gt;&lt;li style=&quot;text-align: left;&quot;&gt;information stored in route&#39;s data table&lt;/li&gt;&lt;/ul&gt;&lt;/div&gt;" style="whiteSpace=wrap;html=1;rounded=1;" vertex="1" parent="1">
          <mxGeometry x="50" y="290" width="210" height="110" as="geometry" />
        </mxCell>
        <mxCell id="pEIZtiJ_ITwtVXxSGJHu-6" value="Routing&lt;div&gt;(Determines whole transfer path)&lt;/div&gt;" style="whiteSpace=wrap;html=1;rounded=1;" vertex="1" parent="1">
          <mxGeometry x="640" y="315" width="120" height="60" as="geometry" />
        </mxCell>
      </root>
    </mxGraphModel>
  </diagram>
</mxfile>
